# xmcd CD database file
#
# Track frame offsets:
#	330
#	29836
#	56457
#	95090
#	126530
#	153926
#
# Disc length: 2335 seconds
#
# Revision: 0
# Processed by: cddbd v1.5.2PL0 Copyright (c) Steve Scherf et al.
# Submitted via: CDex 1.51
#
DISCID=54091b06
DTITLE=Micha³ Urbaniak - Michal Urbaniak`s Group
DYEAR=2004
DGENRE=Jazz
TTITLE0=North Ballad
TTITLE1=Ej Blues
TTITLE2=Spring
TTITLE3=Crazy Girl
TTITLE4=Body and Soul
TTITLE5=Jazz Moment No. 1
EXTD=YEAR: 2004
EXTT0=
EXTT1=
EXTT2=
EXTT3=
EXTT4=
EXTT5=
PLAYORDER=
